:SAMPLES-PER-SECOND 30
:FRAME-RANGE 1-1770
:FULLY-SPECIFIED
:DEGREES
1328
root  -6.60108 40.3459 -0.467553 5.68896 20.0757 1.49167
RightUpLeg  -7.60678 -7.28176 -3.03123
RightLeg  0.968866 -19.6488 3.37956
RightFoot  1.16132 -0.123533 1.19957
RightToes  6.35937e-011 1.2921e-014 -6.02303e-014
Spine  4.29273 -0.131362 5.56913
Spine1  1.38161 0.704822 -3.28616
HEad  -3.34751 -3.66191 -5.0137
LeftShoulder1  1.83962 -1.23197 -32.8059
LeftArm  7.54077 -3.81679 -32.1634
LeftForeArm  3.23342 2.27518 -19.1348
LeftHand  0.0765959 2.60085 -3.88814
RightShoulder  13.5788 20.1691 50.1414
RightArm  38.0113 12.3094 22.7593
RightForeArm  1.7189 17.2123 9.88556
RightHand  -0.0372059 4.91441 -0.71966
LeftUpLeg  -1.68277 10.9877 8.46852
LeftLeg  2.88462 6.17324 -2.88534
LeftFoot  0.125857 1.01197 -10.0687
LeftToes  3.18074e-010 1.39432e-010 -7.71186e-011
1329
root  -6.58026 40.3621 -0.557318 6.12164 21.7709 1.91888
RightUpLeg  -7.78961 -7.88214 -3.66319
RightLeg  1.03249 -20.7209 3.55755
RightFoot  1.13496 -0.129074 1.25115
RightToes  6.35937e-011 1.2921e-014 -6.02303e-014
Spine  4.32311 -0.0257132 5.19221
Spine1  1.50691 0.889977 -3.73059
HEad  -3.36187 -4.52822 -5.20322
LeftShoulder1  1.76071 -1.01703 -32.904
LeftArm  10.1881 0.379825 -29.9232
LeftForeArm  0.723419 1.73461 -19.3407
LeftHand  0.087857 2.41704 -4.04904
RightShoulder  13.3152 19.5315 50.5373
RightArm  24.1459 12.0013 20.5063
RightForeArm  15.1386 5.82969 16.5765
RightHand  0.0820454 4.96214 0.616526
LeftUpLeg  -2.80865 11.3777 7.78082
LeftLeg  3.40482 9.29276 -3.04892
LeftFoot  0.220535 1.05995 -10.4625
LeftToes  3.18074e-010 1.39432e-010 -7.71186e-011
1330
root  -6.52125 40.3704 -0.67267 6.47821 23.9242 2.14728
RightUpLeg  -7.69217 -8.39487 -4.20247
RightLeg  0.677882 -22.2299 3.90762
RightFoot  1.19777 -0.154768 1.48251
RightToes  6.35937e-011 1.2921e-014 -6.02303e-014
Spine  4.29805 0.118827 4.98987
Spine1  1.6051 1.0968 -4.07333
HEad  -3.19911 -5.66832 -5.41437
LeftShoulder1  1.67916 -0.819758 -32.7927
LeftArm  9.77739 4.06601 -28.206
LeftForeArm  0.590059 2.19971 -19.27
LeftHand  0.108135 2.08157 -4.2851
RightShoulder  12.9887 18.7067 51.1351
RightArm  20.0302 10.9278 18.0046
RightForeArm  18.3063 -2.08251 18.4622
RightHand  0.221188 4.78228 2.22451
LeftUpLeg  -4.54074 13.9433 7.12342
LeftLeg  5.60916 14.198 -2.77048
LeftFoot  -1.5911 1.00399 -11.6296
LeftToes  3.18074e-010 1.39432e-010 -7.71186e-011
1331
root  -6.43135 40.4106 -0.8048 6.61267 26.3836 2.25848
RightUpLeg  -6.99213 -8.86981 -4.73828
RightLeg  -0.428711 -24.2029 4.63896
RightFoot  1.57549 -0.184957 1.72818
RightToes  6.35937e-011 1.2921e-014 -6.02303e-014
Spine  4.39263 0.347361 4.61113
Spine1  1.64684 1.36051 -4.26312
HEad  -2.8319 -6.83934 -5.60296
LeftShoulder1  1.58168 -0.607868 -32.4217
LeftArm  4.92678 6.89691 -27.1913
LeftForeArm  4.3771 1.77978 -18.5834
LeftHand  0.129204 1.76375 -4.52785
RightShoulder  12.2957 17.406 51.4307
RightArm  11.4732 9.04566 15.1166
RightForeArm  26.9961 -3.3699 17.7482
RightHand  0.332256 4.22557 3.72965
LeftUpLeg  -6.62745 21.5677 5.76096
LeftLeg  9.52965 15.0048 -1.77523
LeftFoot  -5.64715 0.46417 -8.64246
LeftToes  3.18074e-010 1.39432e-010 -7.71186e-011
1332
root  -6.28111 40.4334 -0.942113 6.50543 29.2021 2.16501
RightUpLeg  -6.11556 -9.36482 -5.23647
RightLeg  -1.28324 -26.3554 5.3688
RightFoot  1.85154 -0.201728 1.853
RightToes  6.35937e-011 1.2921e-014 -6.02303e-014
Spine  4.38594 0.516098 4.19487
Spine1  1.79332 1.5179 -4.20958
HEad  -2.25357 -8.00201 -5.45226
LeftShoulder1  1.47953 -0.368913 -32.1545
LeftArm  1.69353 8.84442 -26.688
LeftForeArm  6.24428 0.991528 -18.0378
LeftHand  0.146745 1.54915 -4.77018
RightShoulder  10.964 15.125 51.4985
RightArm  3.61131 6.60239 12.504
RightForeArm  34.1471 -5.00007 16.7602
RightHand  0.363235 3.71688 4.36901
LeftUpLeg  -8.69636 31.6051 3.54841
LeftLeg  12.9803 14.4226 0.221237
LeftFoot  -8.23784 0.229953 -6.66275
LeftToes  3.18074e-010 1.39432e-010 -7.71186e-011
1333
root  -6.05994 40.4402 -1.0844 6.25714 32.2887 1.92407
RightUpLeg  -5.15588 -10.0266 -5.82175
RightLeg  -1.83989 -28.5937 6.20718
RightFoot  1.917 -0.246981 2.23681
RightToes  6.35937e-011 1.2921e-014 -6.02303e-014
Spine  4.04367 0.449975 3.69651
Spine1  2.10576 1.40516 -4.03717
HEad  -1.35041 -8.87113 -5.16023
LeftShoulder1  1.38163 -0.134046 -31.9262
LeftArm  0.263485 10.4946 -26.4766
LeftForeArm  7.01517 -0.3157 -17.5934
LeftHand  0.161878 1.34064 -4.92476
RightShoulder  9.1516 12.2058 51.0047
RightArm  2.49464 3.77195 11.0448
RightForeArm  34.6185 -5.33093 16.5607
RightHand  0.372765 3.60029 4.55712
LeftUpLeg  -9.77719 37.4378 1.75681
LeftLeg  14.3622 15.98 1.23924
LeftFoot  -9.26355 0.147466 -5.06916
LeftToes  3.18074e-010 1.39432e-010 -7.71186e-011
1334
root  -5.7749 40.4134 -1.26375 5.82257 35.5637 1.36172
RightUpLeg  -4.41899 -10.7597 -6.28712
RightLeg  -1.72502 -31.0722 6.84575
RightFoot  1.69126 -0.318318 2.88651
RightToes  6.35937e-011 1.2921e-014 -6.02303e-014
Spine  3.38359 0.142843 3.14098
Spine1  2.51616 0.962748 -3.51209
HEad  -0.326689 -9.19989 -5.15529
LeftShoulder1  1.32253 0.0271902 -31.9855
LeftArm  0.186486 11.8097 -26.3815
LeftForeArm  6.89419 -1.84344 -17.2256
LeftHand  0.180321 1.08776 -5.09416
RightShoulder  7.2328 9.21555 49.8171
RightArm  7.31472 0.958692 10.563
RightForeArm  29.5459 -4.4663 17.2383
RightHand  0.368657 3.74623 4.4216
LeftUpLeg  -9.03945 35.8376 1.75418
LeftLeg  13.3823 22.3255 0.223409
LeftFoot  -9.17114 0.131521 -4.04006
LeftToes  3.18074e-010 1.39432e-010 -7.71186e-011
1335
root  -5.41917 40.3293 -1.48475 5.01599 39.1167 0.359375
RightUpLeg  -3.97025 -11.6826 -6.67117
RightLeg  -0.35308 -33.5861 6.96616
RightFoot  1.09427 -0.386771 3.61651
RightToes  6.35937e-011 1.2921e-014 -6.02303e-014
Spine  3.28716 -0.392182 3.08933
Spine1  1.92099 0.344905 -3.2997
HEad  1.28529 -9.40953 -5.19769
LeftShoulder1  1.29283 0.102808 -31.9568
LeftArm  1.83044 12.8304 -26.462
LeftForeArm  6.34244 -3.16857 -17.0376
LeftHand  0.185463 1.005 -5.12128
RightShoulder  5.40492 6.2118 48.7549
RightArm  14.7182 -1.81999 10.2015
RightForeArm  22.4792 -2.94077 18.0814
RightHand  0.389804 3.9185 4.59066
LeftUpLeg  -7.24458 26.2659 2.91569
LeftLeg  10.1842 34.2838 -2.09198
LeftFoot  -7.29805 0.192944 -4.22523
LeftToes  3.18074e-010 1.39432e-010 -7.71186e-011
1336
root  -5.02352 40.2465 -1.7496 3.87482 42.3405 -0.604492
RightUpLeg  -3.44762 -12.9626 -7.45615
RightLeg  1.87646 -35.3325 6.73999
RightFoot  0.317868 -0.478502 4.70438
RightToes  6.35937e-011 1.2921e-014 -6.02303e-014
Spine  2.91226 -0.724668 2.42832
Spine1  2.14496 -0.0827652 -2.94194
HEad  2.53362 -9.72259 -4.88085
LeftShoulder1  1.30215 0.0928874 -32.1198
LeftArm  2.36051 12.5565 -27.1349
LeftForeArm  6.65572 -3.16054 -17.0804
LeftHand  0.184876 0.924628 -4.98164
RightShoulder  4.02784 3.93201 47.4835
RightArm  21.4777 -4.18499 9.99534
RightForeArm  16.3986 -1.47044 18.6472
RightHand  0.422999 4.18129 4.84799
LeftUpLeg  -6.95185 16.3303 3.00142
LeftLeg  9.00102 41.9655 -1.97949
LeftFoot  -5.90834 0.0890454 -1.12809
LeftToes  3.18074e-010 1.39432e-010 -7.71186e-011
1337
root  -4.60806 40.1179 -2.05404 2.68121 45.2855 -0.673309
RightUpLeg  -3.5594 -18.5422 -8.67094
RightLeg  7.50685 -32.4015 3.30189
RightFoot  -0.803824 -0.622574 6.68348
RightToes  6.35937e-011 1.2921e-014 -6.02303e-014
Spine  3.14235 -0.960605 0.378035
Spine1  2.45633 -0.566417 -1.99588
HEad  3.64433 -9.78316 -4.10954
LeftShoulder1  1.29236 0.153267 -32.5141
LeftArm  3.01225 11.3339 -27.8729
LeftForeArm  6.18066 -2.75049 -17.3108
LeftHand  0.184338 0.9783 -5.00959
RightShoulder  3.33121 2.71877 46.9406
RightArm  24.8721 -5.71087 9.46594
RightForeArm  13.8206 -0.692206 18.8514
RightHand  0.414358 4.26129 4.69866
LeftUpLeg  -7.1142 15.6717 1.82427
LeftLeg  11.6614 39.1854 0.721898
LeftFoot  -6.71189 0.106273 -1.63153
LeftToes  3.18074e-010 1.39432e-010 -7.71186e-011
1338
root  -4.16309 39.9491 -2.4307 2.1731 48.2359 0.110687
RightUpLeg  -5.93725 -33.0141 -8.93029
RightLeg  15.2314 -19.5882 -3.77199
RightFoot  -1.21354 -0.964285 10.7585
RightToes  6.35937e-011 1.2921e-014 -6.02303e-014
Spine  3.42231 -1.26207 -1.33181
Spine1  2.62908 -0.903634 -2.16123
HEad  5.34597 -9.86392 -3.40251
LeftShoulder1  1.339 0.0682254 -32.9165
LeftArm  4.13786 9.06686 -28.484
LeftForeArm  5.3028 -1.64399 -17.7865
LeftHand  0.188052 1.01999 -5.36853
RightShoulder  3.02245 2.13361 47.0281
RightArm  21.4416 -6.13369 9.07008
RightForeArm  17.4666 -1.56638 18.584
RightHand  0.390422 4.2656 4.40924
LeftUpLeg  -7.34493 15.1406 -0.264464
LeftLeg  14.1257 36.4676 3.24677
LeftFoot  -7.73717 0.0868613 -1.28357
LeftToes  3.18074e-010 1.39432e-010 -7.71186e-011
1339
root  -3.69437 39.8045 -2.86347 1.42529 50.6042 0.320435
RightUpLeg  -8.63025 -32.0452 -9.97744
RightLeg  23.1367 -19.6738 -9.15736
RightFoot  0.383588 -1.40369 13.6369
RightToes  6.35937e-011 1.2921e-014 -6.02303e-014
Spine  3.72259 -1.30793 -1.59118
Spine1  2.51748 -0.751123 -3.48044
HEad  7.1919 -9.94565 -3.25858
LeftShoulder1  1.37587 0.0291093 -33.5349
LeftArm  5.91224 6.38151 -29.2773
LeftForeArm  4.84908 -0.698767 -18.2184
LeftHand  0.188407 1.02179 -5.46802
RightShoulder  2.79525 1.74921 46.6813
RightArm  15.5433 -6.68502 9.30155
RightForeArm  20.8095 -3.13786 18.1108
RightHand  0.399869 4.11008 4.6074
LeftUpLeg  -6.90335 12.9361 -1.45477
LeftLeg  15.3037 36.3115 4.09844
LeftFoot  -8.83924 0.0642159 -0.509037
LeftToes  3.18074e-010 1.39432e-010 -7.71186e-011
